<svg xmlns="http://www.w3.org/2000/svg" xmlns:xlink="http://www.w3.org/1999/xlink" width="500" zoomAndPan="magnify" viewBox="0 0 375 374.999991" height="500" preserveAspectRatio="xMidYMid meet" version="1.2"><defs><clipPath id="a335d65dd9"><path d="M 205 150 L 243 150 L 243 207.59375 L 205 207.59375 Z M 205 150 "/></clipPath><clipPath id="0d9a1827a3"><path d="M 132 105 L 225 105 L 225 207.59375 L 132 207.59375 Z M 132 105 "/></clipPath><clipPath id="ae5dbfb458"><path d="M 217.792969 90.609375 L 237.9375 90.609375 L 237.9375 110.753906 L 217.792969 110.753906 Z M 217.792969 90.609375 "/></clipPath><clipPath id="f38ff621c8"><path d="M 227.863281 90.609375 C 222.300781 90.609375 217.792969 95.117188 217.792969 100.679688 C 217.792969 106.242188 222.300781 110.753906 227.863281 110.753906 C 233.425781 110.753906 237.9375 106.242188 237.9375 100.679688 C 237.9375 95.117188 233.425781 90.609375 227.863281 90.609375 Z M 227.863281 90.609375 "/></clipPath></defs><g id="bd586478a2"><g clip-rule="nonzero" clip-path="url(#a335d65dd9)"><path style=" stroke:none;fill-rule:nonzero;fill:#011936;fill-opacity:1;" d="M 240.871094 193.257812 L 216.230469 150.585938 L 205.367188 169.425781 L 224.554688 202.664062 C 226.285156 205.671875 229.453125 207.382812 232.714844 207.382812 C 234.308594 207.382812 235.925781 206.964844 237.40625 206.109375 C 241.9375 203.496094 243.460938 197.765625 240.871094 193.257812 Z M 240.871094 193.257812 "/></g><g clip-rule="nonzero" clip-path="url(#0d9a1827a3)"><path style=" stroke:none;fill-rule:nonzero;fill:#011936;fill-opacity:1;" d="M 223.582031 127.148438 L 213.132812 145.246094 L 202.246094 164.085938 L 185.417969 193.234375 C 180.378906 201.972656 170.972656 207.40625 160.894531 207.40625 C 150.652344 207.40625 141.476562 202.109375 136.34375 193.234375 C 131.214844 184.382812 131.214844 173.773438 136.34375 164.894531 L 165.792969 113.925781 C 168.84375 108.632812 174.324219 105.464844 180.425781 105.464844 C 186.527344 105.464844 192.007812 108.632812 195.082031 113.925781 L 196.144531 115.777344 L 199.195312 121.046875 L 188.308594 139.886719 L 180.425781 126.246094 L 152.6875 174.304688 C 150.214844 178.578125 151.855469 182.371094 152.6875 183.804688 C 153.519531 185.238281 155.96875 188.566406 160.917969 188.566406 C 164.292969 188.566406 167.457031 186.738281 169.121094 183.804688 L 191.382812 145.246094 L 202.269531 126.410156 L 207.261719 117.742188 C 209.875 113.234375 215.628906 111.683594 220.136719 114.296875 C 224.644531 116.886719 226.195312 122.640625 223.582031 127.148438 Z M 223.582031 127.148438 "/></g><path style=" stroke:none;fill-rule:nonzero;fill:#011936;fill-opacity:1;" d="M 219.003906 104.773438 C 224.042969 116.121094 240.847656 109.164062 236.410156 97.5625 C 231.347656 86.234375 214.542969 93.191406 219.003906 104.773438 Z M 219.003906 104.773438 "/><g clip-rule="nonzero" clip-path="url(#ae5dbfb458)"><g clip-rule="nonzero" clip-path="url(#f38ff621c8)"><path style=" stroke:none;fill-rule:nonzero;fill:#ff471f;fill-opacity:1;" d="M 217.792969 90.609375 L 237.9375 90.609375 L 237.9375 110.753906 L 217.792969 110.753906 Z M 217.792969 90.609375 "/></g></g><g style="fill:#ff471f;fill-opacity:1;"><g transform="translate(121.446918, 256.482053)"><path style="stroke:none" d="M 17.46875 -25.703125 L 27.65625 -4.640625 C 28.082031 -3.785156 28.296875 -3.144531 28.296875 -2.71875 C 28.296875 -1.8125 27.566406 -0.992188 26.109375 -0.265625 C 25.253906 0.160156 24.582031 0.375 24.09375 0.375 C 23.601562 0.375 23.203125 0.257812 22.890625 0.03125 C 22.578125 -0.1875 22.347656 -0.421875 22.203125 -0.671875 C 22.066406 -0.929688 21.875 -1.3125 21.625 -1.8125 L 19.65625 -5.890625 L 9.203125 -5.890625 L 7.25 -1.8125 C 7 -1.3125 6.800781 -0.945312 6.65625 -0.71875 C 6.519531 -0.488281 6.296875 -0.253906 5.984375 -0.015625 C 5.671875 0.222656 5.265625 0.34375 4.765625 0.34375 C 4.273438 0.34375 3.601562 0.128906 2.75 -0.296875 C 1.289062 -1.003906 0.5625 -1.8125 0.5625 -2.71875 C 0.5625 -3.144531 0.773438 -3.785156 1.203125 -4.640625 L 11.390625 -25.734375 C 11.671875 -26.316406 12.09375 -26.78125 12.65625 -27.125 C 13.226562 -27.476562 13.828125 -27.65625 14.453125 -27.65625 C 15.804688 -27.65625 16.8125 -27.003906 17.46875 -25.703125 Z M 14.421875 -16.640625 L 11.921875 -11.46875 L 16.9375 -11.46875 Z M 14.421875 -16.640625 "/></g></g><g style="fill:#ff471f;fill-opacity:1;"><g transform="translate(150.304694, 256.482053)"><path style="stroke:none" d="M 1.921875 -3.890625 C 1.265625 -4.691406 0.9375 -5.410156 0.9375 -6.046875 C 0.9375 -6.691406 1.476562 -7.546875 2.5625 -8.609375 C 3.195312 -9.210938 3.863281 -9.515625 4.5625 -9.515625 C 5.269531 -9.515625 6.253906 -8.882812 7.515625 -7.625 C 7.859375 -7.195312 8.359375 -6.785156 9.015625 -6.390625 C 9.671875 -6.003906 10.273438 -5.8125 10.828125 -5.8125 C 13.171875 -5.8125 14.34375 -6.765625 14.34375 -8.671875 C 14.34375 -9.253906 14.019531 -9.738281 13.375 -10.125 C 12.738281 -10.519531 11.941406 -10.804688 10.984375 -10.984375 C 10.023438 -11.160156 8.988281 -11.441406 7.875 -11.828125 C 6.769531 -12.222656 5.738281 -12.679688 4.78125 -13.203125 C 3.832031 -13.734375 3.035156 -14.570312 2.390625 -15.71875 C 1.753906 -16.863281 1.4375 -18.238281 1.4375 -19.84375 C 1.4375 -22.0625 2.257812 -23.992188 3.90625 -25.640625 C 5.550781 -27.285156 7.796875 -28.109375 10.640625 -28.109375 C 12.148438 -28.109375 13.523438 -27.910156 14.765625 -27.515625 C 16.015625 -27.128906 16.878906 -26.738281 17.359375 -26.34375 L 18.296875 -25.625 C 19.078125 -24.894531 19.46875 -24.273438 19.46875 -23.765625 C 19.46875 -23.265625 19.164062 -22.578125 18.5625 -21.703125 C 17.707031 -20.441406 16.828125 -19.8125 15.921875 -19.8125 C 15.390625 -19.8125 14.738281 -20.0625 13.96875 -20.5625 C 13.882812 -20.613281 13.734375 -20.738281 13.515625 -20.9375 C 13.304688 -21.144531 13.113281 -21.3125 12.9375 -21.4375 C 12.414062 -21.757812 11.742188 -21.921875 10.921875 -21.921875 C 10.109375 -21.921875 9.429688 -21.722656 8.890625 -21.328125 C 8.347656 -20.941406 8.078125 -20.398438 8.078125 -19.703125 C 8.078125 -19.015625 8.394531 -18.457031 9.03125 -18.03125 C 9.675781 -17.601562 10.476562 -17.3125 11.4375 -17.15625 C 12.394531 -17.007812 13.4375 -16.78125 14.5625 -16.46875 C 15.695312 -16.15625 16.738281 -15.769531 17.6875 -15.3125 C 18.644531 -14.863281 19.445312 -14.078125 20.09375 -12.953125 C 20.738281 -11.835938 21.0625 -10.460938 21.0625 -8.828125 C 21.0625 -7.191406 20.734375 -5.75 20.078125 -4.5 C 19.421875 -3.257812 18.566406 -2.300781 17.515625 -1.625 C 15.472656 -0.289062 13.296875 0.375 10.984375 0.375 C 9.796875 0.375 8.671875 0.234375 7.609375 -0.046875 C 6.554688 -0.335938 5.707031 -0.695312 5.0625 -1.125 C 3.726562 -1.9375 2.796875 -2.71875 2.265625 -3.46875 Z M 1.921875 -3.890625 "/></g></g><g style="fill:#ff471f;fill-opacity:1;"><g transform="translate(172.296964, 256.482053)"><path style="stroke:none" d="M 1.921875 -3.890625 C 1.265625 -4.691406 0.9375 -5.410156 0.9375 -6.046875 C 0.9375 -6.691406 1.476562 -7.546875 2.5625 -8.609375 C 3.195312 -9.210938 3.863281 -9.515625 4.5625 -9.515625 C 5.269531 -9.515625 6.253906 -8.882812 7.515625 -7.625 C 7.859375 -7.195312 8.359375 -6.785156 9.015625 -6.390625 C 9.671875 -6.003906 10.273438 -5.8125 10.828125 -5.8125 C 13.171875 -5.8125 14.34375 -6.765625 14.34375 -8.671875 C 14.34375 -9.253906 14.019531 -9.738281 13.375 -10.125 C 12.738281 -10.519531 11.941406 -10.804688 10.984375 -10.984375 C 10.023438 -11.160156 8.988281 -11.441406 7.875 -11.828125 C 6.769531 -12.222656 5.738281 -12.679688 4.78125 -13.203125 C 3.832031 -13.734375 3.035156 -14.570312 2.390625 -15.71875 C 1.753906 -16.863281 1.4375 -18.238281 1.4375 -19.84375 C 1.4375 -22.0625 2.257812 -23.992188 3.90625 -25.640625 C 5.550781 -27.285156 7.796875 -28.109375 10.640625 -28.109375 C 12.148438 -28.109375 13.523438 -27.910156 14.765625 -27.515625 C 16.015625 -27.128906 16.878906 -26.738281 17.359375 -26.34375 L 18.296875 -25.625 C 19.078125 -24.894531 19.46875 -24.273438 19.46875 -23.765625 C 19.46875 -23.265625 19.164062 -22.578125 18.5625 -21.703125 C 17.707031 -20.441406 16.828125 -19.8125 15.921875 -19.8125 C 15.390625 -19.8125 14.738281 -20.0625 13.96875 -20.5625 C 13.882812 -20.613281 13.734375 -20.738281 13.515625 -20.9375 C 13.304688 -21.144531 13.113281 -21.3125 12.9375 -21.4375 C 12.414062 -21.757812 11.742188 -21.921875 10.921875 -21.921875 C 10.109375 -21.921875 9.429688 -21.722656 8.890625 -21.328125 C 8.347656 -20.941406 8.078125 -20.398438 8.078125 -19.703125 C 8.078125 -19.015625 8.394531 -18.457031 9.03125 -18.03125 C 9.675781 -17.601562 10.476562 -17.3125 11.4375 -17.15625 C 12.394531 -17.007812 13.4375 -16.78125 14.5625 -16.46875 C 15.695312 -16.15625 16.738281 -15.769531 17.6875 -15.3125 C 18.644531 -14.863281 19.445312 -14.078125 20.09375 -12.953125 C 20.738281 -11.835938 21.0625 -10.460938 21.0625 -8.828125 C 21.0625 -7.191406 20.734375 -5.75 20.078125 -4.5 C 19.421875 -3.257812 18.566406 -2.300781 17.515625 -1.625 C 15.472656 -0.289062 13.296875 0.375 10.984375 0.375 C 9.796875 0.375 8.671875 0.234375 7.609375 -0.046875 C 6.554688 -0.335938 5.707031 -0.695312 5.0625 -1.125 C 3.726562 -1.9375 2.796875 -2.71875 2.265625 -3.46875 Z M 1.921875 -3.890625 "/></g></g><g style="fill:#ff471f;fill-opacity:1;"><g transform="translate(194.289234, 256.482053)"><path style="stroke:none" d="M 1.515625 -24.34375 C 1.515625 -24.914062 1.53125 -25.347656 1.5625 -25.640625 C 1.601562 -25.929688 1.722656 -26.265625 1.921875 -26.640625 C 2.273438 -27.316406 3.257812 -27.65625 4.875 -27.65625 C 6.632812 -27.65625 7.675781 -27.191406 8 -26.265625 C 8.125 -25.835938 8.1875 -25.179688 8.1875 -24.296875 L 8.1875 -3.328125 C 8.1875 -2.722656 8.164062 -2.28125 8.125 -2 C 8.09375 -1.71875 7.972656 -1.390625 7.765625 -1.015625 C 7.421875 -0.335938 6.441406 0 4.828125 0 C 3.066406 0 2.035156 -0.476562 1.734375 -1.4375 C 1.585938 -1.832031 1.515625 -2.472656 1.515625 -3.359375 Z M 1.515625 -24.34375 "/></g></g><g style="fill:#ff471f;fill-opacity:1;"><g transform="translate(203.983936, 256.482053)"><path style="stroke:none" d="M 1.921875 -3.890625 C 1.265625 -4.691406 0.9375 -5.410156 0.9375 -6.046875 C 0.9375 -6.691406 1.476562 -7.546875 2.5625 -8.609375 C 3.195312 -9.210938 3.863281 -9.515625 4.5625 -9.515625 C 5.269531 -9.515625 6.253906 -8.882812 7.515625 -7.625 C 7.859375 -7.195312 8.359375 -6.785156 9.015625 -6.390625 C 9.671875 -6.003906 10.273438 -5.8125 10.828125 -5.8125 C 13.171875 -5.8125 14.34375 -6.765625 14.34375 -8.671875 C 14.34375 -9.253906 14.019531 -9.738281 13.375 -10.125 C 12.738281 -10.519531 11.941406 -10.804688 10.984375 -10.984375 C 10.023438 -11.160156 8.988281 -11.441406 7.875 -11.828125 C 6.769531 -12.222656 5.738281 -12.679688 4.78125 -13.203125 C 3.832031 -13.734375 3.035156 -14.570312 2.390625 -15.71875 C 1.753906 -16.863281 1.4375 -18.238281 1.4375 -19.84375 C 1.4375 -22.0625 2.257812 -23.992188 3.90625 -25.640625 C 5.550781 -27.285156 7.796875 -28.109375 10.640625 -28.109375 C 12.148438 -28.109375 13.523438 -27.910156 14.765625 -27.515625 C 16.015625 -27.128906 16.878906 -26.738281 17.359375 -26.34375 L 18.296875 -25.625 C 19.078125 -24.894531 19.46875 -24.273438 19.46875 -23.765625 C 19.46875 -23.265625 19.164062 -22.578125 18.5625 -21.703125 C 17.707031 -20.441406 16.828125 -19.8125 15.921875 -19.8125 C 15.390625 -19.8125 14.738281 -20.0625 13.96875 -20.5625 C 13.882812 -20.613281 13.734375 -20.738281 13.515625 -20.9375 C 13.304688 -21.144531 13.113281 -21.3125 12.9375 -21.4375 C 12.414062 -21.757812 11.742188 -21.921875 10.921875 -21.921875 C 10.109375 -21.921875 9.429688 -21.722656 8.890625 -21.328125 C 8.347656 -20.941406 8.078125 -20.398438 8.078125 -19.703125 C 8.078125 -19.015625 8.394531 -18.457031 9.03125 -18.03125 C 9.675781 -17.601562 10.476562 -17.3125 11.4375 -17.15625 C 12.394531 -17.007812 13.4375 -16.78125 14.5625 -16.46875 C 15.695312 -16.15625 16.738281 -15.769531 17.6875 -15.3125 C 18.644531 -14.863281 19.445312 -14.078125 20.09375 -12.953125 C 20.738281 -11.835938 21.0625 -10.460938 21.0625 -8.828125 C 21.0625 -7.191406 20.734375 -5.75 20.078125 -4.5 C 19.421875 -3.257812 18.566406 -2.300781 17.515625 -1.625 C 15.472656 -0.289062 13.296875 0.375 10.984375 0.375 C 9.796875 0.375 8.671875 0.234375 7.609375 -0.046875 C 6.554688 -0.335938 5.707031 -0.695312 5.0625 -1.125 C 3.726562 -1.9375 2.796875 -2.71875 2.265625 -3.46875 Z M 1.921875 -3.890625 "/></g></g><g style="fill:#ff471f;fill-opacity:1;"><g transform="translate(225.976206, 256.482053)"><path style="stroke:none" d="M 3.328125 -27.703125 L 24.296875 -27.703125 C 25.109375 -27.703125 25.703125 -27.601562 26.078125 -27.40625 C 26.453125 -27.21875 26.703125 -26.921875 26.828125 -26.515625 C 26.953125 -26.117188 27.015625 -25.59375 27.015625 -24.9375 C 27.015625 -24.289062 26.953125 -23.769531 26.828125 -23.375 C 26.703125 -22.988281 26.488281 -22.71875 26.1875 -22.5625 C 25.738281 -22.332031 25.097656 -22.21875 24.265625 -22.21875 L 17.0625 -22.21875 L 17.0625 -3.25 C 17.0625 -2.664062 17.039062 -2.234375 17 -1.953125 C 16.957031 -1.679688 16.84375 -1.363281 16.65625 -1 C 16.46875 -0.632812 16.132812 -0.375 15.65625 -0.21875 C 15.175781 -0.0703125 14.546875 0 13.765625 0 C 12.992188 0 12.375 -0.0703125 11.90625 -0.21875 C 11.4375 -0.375 11.109375 -0.632812 10.921875 -1 C 10.734375 -1.363281 10.617188 -1.691406 10.578125 -1.984375 C 10.546875 -2.273438 10.53125 -2.707031 10.53125 -3.28125 L 10.53125 -22.21875 L 3.28125 -22.21875 C 2.476562 -22.21875 1.882812 -22.3125 1.5 -22.5 C 1.125 -22.695312 0.875 -22.992188 0.75 -23.390625 C 0.625 -23.796875 0.5625 -24.328125 0.5625 -24.984375 C 0.5625 -25.640625 0.625 -26.160156 0.75 -26.546875 C 0.875 -26.929688 1.085938 -27.203125 1.390625 -27.359375 C 1.847656 -27.585938 2.492188 -27.703125 3.328125 -27.703125 Z M 3.328125 -27.703125 "/></g></g></g></svg>